#!OML:ASF X:\für Bonn\!DataBase\2005_08_11_Bastian_Final\c3d\Bastian.ASF
:FULLY-SPECIFIED
:DEGREES
98
root 0.547965 17.4168 0.324772 150.493 -16.9827 -169.64
lowerback 25.8787 -5.63517 6.92338
upperback 14.4401 -10.1406 4.30783
thorax 1.96918 -6.73284 3.11228
lowerneck -6.07827 -9.26705 -4.98148
upperneck -7.06061 -11.1824 13.8143
head 0.021131 -5.29388 4.64406
rclavicle -6.75868e-015 -2.78299e-014
rhumerus -40.3558 35.7643 -99.3643
rradius 39.3678
rwrist -30.9969
rhand -35.8317 5.74545
rfingers 7.12502
rthumb -8.9474 -24.0448
lclavicle -6.75868e-015 -2.78299e-014
lhumerus 20.0668 -34.6436 85.9081
lradius 92.1014
lwrist -13.3252
lhand -53.4828 -17.5965
lfingers 7.12502
lthumb -25.9282 10.6553
rfemur -36.745 0.177699 29.3273
rtibia 105.897
rfoot 6.97242 -12.5723
rtoes -7.7472
lfemur 22.2828 -5.48894 -14.1607
ltibia 20.3062
lfoot -8.19062 -2.82164
ltoes -0.482164
99
root 0.550263 17.4297 0.289438 151.534 -16.7183 -169.773
lowerback 24.3884 -5.56423 6.87116
upperback 13.975 -9.86141 4.26866
thorax 2.08993 -6.45161 2.8697
lowerneck -5.71655 -9.21748 -4.95599
upperneck -6.74809 -11.2034 13.452
head 0.0290177 -5.32864 4.53984
rclavicle -2.62396e-014 2.14687e-014
rhumerus -40.0148 35.3023 -99.0166
rradius 39.5615
rwrist -31.0839
rhand -36.068 5.99429
rfingers 7.12502
rthumb -9.17538 -23.7861
lclavicle -2.62396e-014 2.14687e-014
lhumerus 18.1345 -34.882 86.4502
lradius 90.0486
lwrist -13.223
lhand -53.2024 -17.1393
lfingers 7.12502
lthumb -25.6596 11.1515
rfemur -34.7894 0.619689 29.1999
rtibia 103.365
rfoot 7.06506 -13.5773
rtoes -6.5688
lfemur 21.343 -5.50906 -14.2018
ltibia 20.5006
lfoot -8.47328 -2.50115
ltoes 0.079108
100
root 0.552809 17.4415 0.252954 152.571 -16.4368 -169.918
lowerback 22.925 -5.48293 6.8305
upperback 13.4735 -9.56179 4.22454
thorax 2.17508 -6.16177 2.62616
lowerneck -5.28704 -9.17472 -4.99742
upperneck -6.33201 -11.263 12.767
head 0.0174659 -5.37749 4.82187
rclavicle 3.27995e-014 -5.00937e-014
rhumerus -39.7483 34.8384 -98.7419
rradius 39.7566
rwrist -31.245
rhand -36.3072 6.22245
rfingers 7.12502
rthumb -9.40622 -23.5477
lclavicle 3.27995e-014 -5.00937e-014
lhumerus 16.2278 -35.1959 86.9582
lradius 87.9739
lwrist -13.1011
lhand -52.7815 -16.6145
lfingers 7.12502
lthumb -25.2565 11.7338
rfemur -32.8952 0.967578 29.0868
rtibia 100.808
rfoot 7.05527 -14.5333
rtoes -5.61594
lfemur 20.3452 -5.39284 -14.1838
ltibia 20.8107
lfoot -8.80728 -2.30774
ltoes 0.231789
101
root 0.55632 17.4505 0.208006 153.631 -16.1631 -170.062
lowerback 21.335 -5.37768 6.78503
upperback 12.9941 -9.25813 4.17489
thorax 2.36729 -5.87352 2.36511
lowerneck -4.9511 -9.13725 -4.94627
upperneck -5.98213 -11.2967 12.4123
head 0.0471543 -5.41627 4.6915
rclavicle -1.37161e-014 -5.56597e-015
rhumerus -39.461 34.4434 -98.5322
rradius 39.9117
rwrist -31.5144
rhand -36.5154 6.42212
rfingers 7.12502
rthumb -9.60714 -23.3388
lclavicle -1.37161e-014 -5.56597e-015
lhumerus 14.4782 -35.651 87.3144
lradius 85.8329
lwrist -12.941
lhand -52.2658 -16.0474
lfingers 7.12502
lthumb -24.7623 12.3697
rfemur -31.0735 1.21069 28.9963
rtibia 98.2504
rfoot 6.67832 -15.5825
rtoes -5.73817
lfemur 19.2996 -5.22422 -14.1176
ltibia 21.2103
lfoot -9.16931 -2.20248
ltoes 0.513502
102
root 0.560996 17.4563 0.168503 154.674 -15.8946 -170.227
lowerback 19.8641 -5.28788 6.75478
upperback 12.4721 -8.96152 4.10091
thorax 2.46892 -5.59278 2.10178
lowerneck -4.55406 -9.09633 -4.90749
upperneck -5.65125 -11.3213 12.0863
head 0.0617232 -5.45172 4.5788
rclavicle 3.33958e-014 -4.6118e-014
rhumerus -39.2343 34.1602 -98.4331
rradius 40.0327
rwrist -31.9034
rhand -36.7091 6.63663
rfingers 7.12502
rthumb -9.79396 -23.1156
lclavicle 3.33958e-014 -4.6118e-014
lhumerus 12.7778 -36.1636 87.5905
lradius 83.654
lwrist -12.6172
lhand -51.6192 -15.617
lfingers 7.12502
lthumb -24.1425 12.8838
rfemur -29.3366 1.39891 28.8536
rtibia 95.6673
rfoot 6.20848 -16.6222
rtoes -5.85641
lfemur 18.2205 -5.0556 -14.0869
ltibia 21.6784
lfoot -9.55874 -2.10641
ltoes 0.889951
103
root 0.566958 17.4588 0.129561 155.685 -15.6061 -170.377
lowerback 18.4492 -5.17711 6.74426
upperback 11.937 -8.64401 4.04259
thorax 2.54916 -5.31021 1.85723
lowerneck -4.15603 -9.06612 -4.85791
upperneck -5.31659 -11.3593 11.7328
head 0.0757643 -5.49331 4.45461
rclavicle -3.65764e-014 -8.74653e-015
rhumerus -38.9954 33.8146 -98.3226
rradius 40.1389
rwrist -32.2231
rhand -36.8421 6.7683
rfingers 7.12502
rthumb -9.92233 -22.9779
lclavicle -3.65764e-014 -8.74653e-015
lhumerus 11.1395 -36.7739 87.8636
lradius 81.3625
lwrist -12.3809
lhand -50.9174 -15.0948
lfingers 7.12502
lthumb -23.4694 13.4937
rfemur -27.6195 1.56921 28.7495
rtibia 93.0349
rfoot 5.78681 -17.6305
rtoes -6.26381
lfemur 17.1452 -4.83763 -14.0162
ltibia 22.1934
lfoot -9.97762 -2.0589
ltoes 1.08189
104
root 0.574227 17.459 0.0895861 156.683 -15.3161 -170.542
lowerback 17.0622 -5.06397 6.73536
upperback 11.3926 -8.33026 3.96118
thorax 2.6194 -5.03477 1.60095
lowerneck -3.78666 -8.571 -4.81851
upperneck -5.03457 -11.4758 11.37
head 0.0769495 -5.90545 4.3297
rclavicle 1.22253e-014 -3.4191e-014
rhumerus -38.8049 33.4732 -98.2925
rradius 40.2182
rwrist -32.4985
rhand -36.9854 6.87084
rfingers 7.12502
rthumb -10.0606 -22.8687
lclavicle 1.22253e-014 -3.4191e-014
lhumerus 9.50495 -37.462 88.1176
lradius 79.0067
lwrist -12.1567
lhand -50.1874 -14.5741
lfingers 7.12502
lthumb -22.7689 14.1023
rfemur -25.9388 1.73571 28.6237
rtibia 90.3449
rfoot 5.29751 -18.6037
rtoes -6.53428
lfemur 16.0653 -4.54711 -13.9294
ltibia 22.7343
lfoot -10.3709 -2.09938
ltoes 1.39733
105
root 0.582246 17.4579 0.0499512 157.618 -15.0174 -170.707
lowerback 15.7509 -4.94878 6.7309
upperback 10.8586 -8.0289 3.87771
thorax 2.67951 -4.77656 1.35829
lowerneck -3.42828 -8.57932 -4.79173
upperneck -4.66584 -11.4849 11.062
head 0.11165 -5.8922 4.22515
rclavicle 4.35338e-014 -6.91771e-014
rhumerus -38.5882 33.2091 -98.2887
rradius 40.2541
rwrist -32.7512
rhand -37.096 6.89081
rfingers 7.12502
rthumb -10.1673 -22.8435
lclavicle 4.35338e-014 -6.91771e-014
lhumerus 7.88912 -38.2111 88.3488
lradius 76.5446
lwrist -11.9761
lhand -49.4831 -14.0484
lfingers 7.12502
lthumb -22.0929 14.7094
rfemur -24.2254 1.89804 28.5146
rtibia 87.5795
rfoot 4.7983 -19.5465
rtoes -6.44816
lfemur 15.0674 -4.26005 -13.8597
ltibia 23.2538
lfoot -10.78 -2.12004
ltoes 1.44488
106
root 0.592627 17.4558 0.0102678 158.492 -14.6934 -170.897
lowerback 14.5389 -4.8212 6.68122
upperback 10.3286 -7.72632 3.79608
thorax 2.71275 -4.53078 1.16037
lowerneck -3.10095 -8.5758 -4.79318
upperneck -4.26898 -11.48 10.7549
head 0.16143 -5.87146 4.12477
rclavicle -9.38264e-014 5.48646e-014
rhumerus -38.4276 33.018 -98.3382
rradius 40.3274
rwrist -33.0136
rhand -37.2029 6.85455
rfingers 7.12502
rthumb -10.2704 -22.8747
lclavicle -9.38264e-014 5.48646e-014
lhumerus 6.271 -38.9897 88.6378
lradius 74.0142
lwrist -11.768
lhand -48.7878 -13.5226
lfingers 7.12502
lthumb -21.4252 15.3127
rfemur -22.4982 2.11594 28.4121
rtibia 84.7525
rfoot 4.24591 -20.4884
rtoes -6.072
lfemur 14.161 -3.97917 -13.8268
ltibia 23.7285
lfoot -11.1652 -2.07576
ltoes 1.42952
107
root 0.60341 17.4532 -0.0292063 159.303 -14.3595 -171.067
lowerback 13.3894 -4.69701 6.67405
upperback 9.81093 -7.43662 3.70792
thorax 2.7348 -4.29849 0.947325
lowerneck -2.77743 -8.56768 -4.79061
upperneck -3.87869 -11.4706 10.4357
head 0.208146 -5.85019 4.02037
rclavicle 2.19657e-014 5.56597e-015
rhumerus -38.234 32.7941 -98.4012
rradius 40.3191
rwrist -33.1639
rhand -37.248 6.83322
rfingers 7.12502
rthumb -10.3139 -22.8939
lclavicle 2.19657e-014 5.56597e-015
lhumerus 4.72926 -39.8707 88.9036
lradius 71.4216
lwrist -11.4939
lhand -48.0666 -13.0268
lfingers 7.12502
lthumb -20.7324 15.8858
rfemur -20.7654 2.33608 28.3312
rtibia 81.8561
rfoot 3.71894 -21.3391
rtoes -5.55117
lfemur 13.3419 -3.72097 -13.7903
ltibia 24.161
lfoot -11.5474 -2.03739
ltoes 1.43508
108
root 0.616869 17.45 -0.0692119 160.058 -14.0138 -171.252
lowerback 12.3069 -4.56993 6.64419
upperback 9.2933 -7.15104 3.60609
thorax 2.73299 -4.07626 0.746388
lowerneck -2.36532 -8.53658 -4.86347
upperneck -3.53491 -11.4327 10.2026
head 0.23274 -5.81984 3.96694
rclavicle 8.71671e-014 -3.4191e-014
rhumerus -38.1326 32.6045 -98.5423
rradius 40.364
rwrist -33.2823
rhand -37.3109 6.78737
rfingers 7.12502
rthumb -10.3745 -22.9367
lclavicle 8.71671e-014 -3.4191e-014
lhumerus 3.18243 -40.8953 89.1452
lradius 68.8207
lwrist -11.0793
lhand -47.4163 -12.4694
lfingers 7.12502
lthumb -20.1075 16.51
rfemur -19.0326 2.5065 28.2271
rtibia 78.9115
rfoot 3.02147 -22.0581
rtoes -6.09414
lfemur 12.6125 -3.51844 -13.7958
ltibia 24.5559
lfoot -11.9369 -1.91383
ltoes 1.4404
109
root 0.631267 17.4472 -0.108774 160.786 -13.6596 -171.402
lowerback 11.2263 -4.44999 6.6408
upperback 8.79755 -6.89402 3.52548
thorax 2.76434 -3.87601 0.560334
lowerneck -1.9771 -8.49815 -4.98596
upperneck -3.19583 -11.3852 9.97133
head 0.262452 -5.78496 3.92251
rclavicle -4.22417e-014 1.32788e-013
rhumerus -38.0399 32.5619 -98.7116
rradius 40.4076
rwrist -33.434
rhand -37.3807 6.7811
rfingers 7.12502
rthumb -10.4419 -22.9396
lclavicle -4.22417e-014 1.32788e-013
lhumerus 1.59832 -41.8814 89.4883
lradius 66.2539
lwrist -10.56
lhand -46.7324 -11.9956
lfingers 7.12502
lthumb -19.45 17.0516
rfemur -17.3615 2.59547 28.1406
rtibia 75.9307
rfoot 2.32557 -22.5
rtoes -6.968
lfemur 11.9086 -3.30007 -13.7604
ltibia 24.933
lfoot -12.3153 -1.81407
ltoes 1.29404
110
root 0.648595 17.4416 -0.146898 161.489 -13.296 -171.564
lowerback 10.1983 -4.31319 6.60257
upperback 8.30581 -6.62428 3.4459
thorax 2.78436 -3.67734 0.403403
lowerneck -1.56333 -8.45192 -5.09116
upperneck -2.8991 -11.3301 9.75026
head 0.273 -5.74994 3.88146
rclavicle -6.6891e-014 9.30312e-014
rhumerus -37.9741 32.4891 -98.8904
rradius 40.4648
rwrist -33.4828
rhand -37.4103 6.80654
rfingers 7.12502
rthumb -10.4705 -22.9127
lclavicle -6.6891e-014 9.30312e-014
lhumerus -0.0280467 -42.9383 89.9051
lradius 63.7152
lwrist -9.91887
lhand -46.0302 -11.5505
lfingers 7.12502
lthumb -18.7748 17.5634
rfemur -15.7603 2.61233 28.0455
rtibia 72.9621
rfoot 1.57092 -22.6134
rtoes -8.44766
lfemur 11.2413 -3.10024 -13.744
ltibia 25.2879
lfoot -12.6681 -1.68802
ltoes 1.10768
